<svg xmlns="http://www.w3.org/2000/svg" viewBox="0 0 512 512" role="img" aria-label="RGM alternate icon">
  <defs>
    <linearGradient id="bg" x1="0" y1="0" x2="1" y2="1">
      <stop offset="0%" stop-color="#101525"/>
      <stop offset="100%" stop-color="#301a4f"/>
    </linearGradient>
    <linearGradient id="ring" x1="0" y1="0" x2="1" y2="1">
      <stop offset="0%" stop-color="#43f8ff"/>
      <stop offset="100%" stop-color="#ff52d6"/>
    </linearGradient>
    <linearGradient id="bar" x1="0" y1="1" x2="0" y2="0">
      <stop offset="0%" stop-color="#3f66ff"/>
      <stop offset="100%" stop-color="#5fffe2"/>
    </linearGradient>
  </defs>

  <rect width="512" height="512" rx="112" fill="url(#bg)"/>

  <circle cx="256" cy="256" r="168" fill="none" stroke="url(#ring)" stroke-width="28"/>
  <circle cx="256" cy="256" r="126" fill="#121b37"/>

  <path d="M156 314 L194 286 L226 302 L262 252 L300 270 L342 218" fill="none" stroke="#53ffe4" stroke-width="14" stroke-linecap="round" stroke-linejoin="round"/>

  <g>
    <rect x="172" y="334" width="20" height="38" rx="8" fill="url(#bar)"/>
    <rect x="204" y="320" width="20" height="52" rx="8" fill="url(#bar)"/>
    <rect x="236" y="304" width="20" height="68" rx="8" fill="url(#bar)"/>
    <rect x="268" y="288" width="20" height="84" rx="8" fill="url(#bar)"/>
    <rect x="300" y="270" width="20" height="102" rx="8" fill="url(#bar)"/>
  </g>

  <path d="M176 214 Q256 158 336 214" fill="none" stroke="#ff7adf" stroke-width="12" stroke-linecap="round"/>
  <circle cx="256" cy="214" r="10" fill="#ff7adf"/>

  <rect x="132" y="392" width="248" height="14" rx="7" fill="#4f66dc" opacity="0.9"/>
</svg>
