<svg xmlns="http://www.w3.org/2000/svg" viewBox="0 0 512 512" role="img" aria-label="RGM icon">
  <defs>
    <linearGradient id="bg" x1="0" y1="0" x2="1" y2="1">
      <stop offset="0%" stop-color="#0d152b"/>
      <stop offset="100%" stop-color="#1c3f6f"/>
    </linearGradient>
    <linearGradient id="chip" x1="0" y1="0" x2="1" y2="1">
      <stop offset="0%" stop-color="#1ef0bb"/>
      <stop offset="100%" stop-color="#1a9dff"/>
    </linearGradient>
    <linearGradient id="panel" x1="0" y1="0" x2="0" y2="1">
      <stop offset="0%" stop-color="#18284a"/>
      <stop offset="100%" stop-color="#0d162f"/>
    </linearGradient>
  </defs>

  <rect width="512" height="512" rx="112" fill="url(#bg)"/>

  <g fill="#9ad8ff" opacity="0.28">
    <rect x="80" y="116" width="6" height="24"/>
    <rect x="80" y="164" width="6" height="24"/>
    <rect x="80" y="212" width="6" height="24"/>
    <rect x="80" y="260" width="6" height="24"/>
    <rect x="80" y="308" width="6" height="24"/>
    <rect x="80" y="356" width="6" height="24"/>
    <rect x="426" y="116" width="6" height="24"/>
    <rect x="426" y="164" width="6" height="24"/>
    <rect x="426" y="212" width="6" height="24"/>
    <rect x="426" y="260" width="6" height="24"/>
    <rect x="426" y="308" width="6" height="24"/>
    <rect x="426" y="356" width="6" height="24"/>
    <rect x="116" y="80" width="24" height="6"/>
    <rect x="164" y="80" width="24" height="6"/>
    <rect x="212" y="80" width="24" height="6"/>
    <rect x="260" y="80" width="24" height="6"/>
    <rect x="308" y="80" width="24" height="6"/>
    <rect x="356" y="80" width="24" height="6"/>
    <rect x="116" y="426" width="24" height="6"/>
    <rect x="164" y="426" width="24" height="6"/>
    <rect x="212" y="426" width="24" height="6"/>
    <rect x="260" y="426" width="24" height="6"/>
    <rect x="308" y="426" width="24" height="6"/>
    <rect x="356" y="426" width="24" height="6"/>
  </g>

  <rect x="96" y="96" width="320" height="320" rx="76" fill="url(#chip)"/>
  <rect x="124" y="124" width="264" height="264" rx="52" fill="url(#panel)"/>

  <g>
    <path d="M162 316 L204 282 L236 296 L278 238 L320 262 L352 228" fill="none" stroke="#2dffd2" stroke-width="16" stroke-linecap="round" stroke-linejoin="round"/>
    <circle cx="162" cy="316" r="7" fill="#2dffd2"/>
    <circle cx="352" cy="228" r="7" fill="#2dffd2"/>

    <rect x="164" y="172" width="114" height="18" rx="9" fill="#2f5fa2"/>
    <rect x="164" y="196" width="84" height="18" rx="9" fill="#2f5fa2"/>
    <rect x="164" y="220" width="136" height="18" rx="9" fill="#2f5fa2"/>

    <rect x="318" y="170" width="26" height="88" rx="13" fill="#31496d"/>
    <rect x="322" y="208" width="18" height="46" rx="9" fill="#ff8b3d"/>
    <circle cx="331" cy="268" r="18" fill="#ff8b3d"/>

    <circle cx="312" cy="318" r="30" fill="#132447" stroke="#6ec7ff" stroke-width="6"/>
    <path d="M312 292 L319 312 L339 312 L322 324 L329 344 L312 332 L295 344 L302 324 L285 312 L305 312 Z" fill="#6ec7ff"/>
  </g>
</svg>
